<?xml version="1.0" encoding="UTF-8"?>
<svg id="Layer_1" data-name="Layer 1" xmlns="http://www.w3.org/2000/svg" xmlns:xlink="http://www.w3.org/1999/xlink" viewBox="0 0 1346.9 355.81">
  <defs>
    <style>
      .cls-1 {
        fill: #47c2c4;
      }

      .cls-1, .cls-2 {
        stroke: #231f20;
        stroke-miterlimit: 10;
        stroke-width: .25px;
      }

      .cls-3 {
        fill: url(#linear-gradient);
      }

      .cls-3, .cls-4, .cls-5, .cls-6 {
        stroke-width: 0px;
      }

      .cls-4 {
        fill: url(#linear-gradient-2);
      }

      .cls-2 {
        fill: #69479c;
      }

      .cls-5 {
        fill: #6d6d6d;
      }

      .cls-6 {
        fill: #5885b0;
      }
    </style>
    <linearGradient id="linear-gradient" x1="1300.68" y1="144.32" x2="1274.76" y2="177.64" gradientTransform="translate(1118.02 1532.69) rotate(-90)" gradientUnits="userSpaceOnUse">
      <stop offset="0" stop-color="#4e2a7e"/>
      <stop offset=".99" stop-color="#69479c"/>
    </linearGradient>
    <linearGradient id="linear-gradient-2" x1="1425.07" y1="85.22" x2="1412.08" y2="98.82" gradientTransform="translate(1118.02 1532.69) rotate(-90)" gradientUnits="userSpaceOnUse">
      <stop offset="0" stop-color="#47c2c4"/>
      <stop offset=".99" stop-color="#11a1b7"/>
    </linearGradient>
  </defs>
  <path class="cls-5" d="M93.14,133.14c1.52,1.52,2.28,3.36,2.28,5.52s-.76,4-2.28,5.52c-1.52,1.52-3.36,2.28-5.52,2.28s-4-.76-5.52-2.28c-1.52-1.52-2.28-3.36-2.28-5.52s.76-4,2.28-5.52c1.52-1.52,3.36-2.28,5.52-2.28s4,.76,5.52,2.28ZM153.26,130.86c-2.08,0-3.88.76-5.4,2.28-1.52,1.52-2.28,3.36-2.28,5.52s.76,4,2.28,5.52,3.32,2.28,5.4,2.28,4-.76,5.52-2.28c1.52-1.52,2.28-3.36,2.28-5.52s-.76-4-2.28-5.52-3.36-2.28-5.52-2.28ZM171.62,130.86c-2.16,0-4,.76-5.52,2.28-1.52,1.52-2.28,3.36-2.28,5.52s.76,4,2.28,5.52c1.52,1.52,3.36,2.28,5.52,2.28s3.98-.76,5.46-2.28c1.48-1.52,2.22-3.36,2.22-5.52s-.74-4-2.22-5.52c-1.48-1.52-3.3-2.28-5.46-2.28ZM165.02,106.86c0,.8-.28,1.48-.84,2.04-.64.64-1.4.96-2.28.96h-23.88c.08-.4.12-1,.12-1.8v-41.16h-14.64v39.6c0,.88-.24,1.64-.72,2.28-.72.72-1.6,1.08-2.64,1.08h-59.28c-2.4,0-4.52-.84-6.36-2.52-1.92-1.76-2.88-4.04-2.88-6.84v-24.96h-7.2l-7.44,6v18.96c0,6.88,2.56,12.44,7.68,16.68,3.76,3.28,8.2,4.92,13.32,4.92h67.2c4.24,0,7.6-1.64,10.08-4.92h.36l4.56,4.92h26.4c3.92,0,7.2-1.52,9.84-4.56,2.08-2.64,3.12-5.52,3.12-8.64v-42h-14.52v39.96ZM215.18,117.9c0,13.76-7.08,20.64-21.24,20.64-2.4,0-4.88-.2-7.44-.6v5.16l5.88,7.32c1.76.16,3.16.24,4.2.24,3.12,0,6.12-.28,9-.84,6.16-1.44,11.2-3.96,15.12-7.56,6.08-5.44,9.12-13.12,9.12-23.04v-52.32h-14.64v51ZM308.18,55.98c2.16,0,4-.76,5.52-2.28s2.28-3.32,2.28-5.4-.76-4-2.28-5.52c-1.52-1.52-3.36-2.28-5.52-2.28s-4,.76-5.52,2.28-2.28,3.36-2.28,5.52.76,3.88,2.28,5.4c1.52,1.52,3.36,2.28,5.52,2.28ZM326.42,55.98c2.16,0,4-.76,5.52-2.28,1.52-1.52,2.28-3.32,2.28-5.4s-.76-4-2.28-5.52c-1.52-1.52-3.36-2.28-5.52-2.28s-3.88.76-5.4,2.28c-1.52,1.52-2.28,3.36-2.28,5.52s.76,3.88,2.28,5.4c1.52,1.52,3.32,2.28,5.4,2.28ZM400.94,106.86c0,.8-.28,1.48-.84,2.04-.64.64-1.4.96-2.28.96h-23.76V36.18h-14.52v70.68c0,.56-.24,1.24-.72,2.04-.64.64-1.44.96-2.4.96h-23.76v-42.96h-14.52v39.6c0,.96-.36,1.76-1.08,2.4-.48.64-1.28.96-2.4.96h-20.4c.08-.88.12-2.24.12-4.08v-11.52c0-7.92-2.52-14.56-7.56-19.92-5.68-5.92-13.12-8.88-22.32-8.88-3.6,0-6.76.24-9.48.72v11.64c1.36-.32,3.4-.48,6.12-.48,5.92.24,10.44,1.92,13.56,5.04,3.36,3.36,5.04,7.8,5.04,13.32v11.16c0,2-1,3-3,3h-33.84v12.24h38.52c2.96,0,5.64-.96,8.04-2.88.72-.64,1.4-1.32,2.04-2.04h.36l3.96,4.92h23.88c4.08,0,7.48-1.64,10.2-4.92h.24l4.44,4.92h26.52c4.08,0,7.48-1.64,10.2-4.92h.24l4.56,4.92h26.4c4,0,7.24-1.52,9.72-4.56,2.16-2.4,3.24-5.28,3.24-8.64V36.18h-14.52v70.68ZM484.58,157.74c-2.16,0-4,.76-5.52,2.28-1.52,1.52-2.28,3.36-2.28,5.52s.76,4,2.28,5.52c1.52,1.52,3.36,2.28,5.52,2.28s4-.76,5.52-2.28c1.52-1.52,2.28-3.36,2.28-5.52s-.76-4-2.28-5.52-3.36-2.28-5.52-2.28ZM502.82,157.74c-2.08,0-3.88.76-5.4,2.28-1.52,1.52-2.28,3.36-2.28,5.52s.76,4,2.28,5.52,3.32,2.28,5.4,2.28,4-.76,5.52-2.28c1.52-1.52,2.28-3.36,2.28-5.52s-.76-4-2.28-5.52c-1.52-1.52-3.36-2.28-5.52-2.28ZM657.38,55.98c2.16,0,4-.76,5.52-2.28s2.28-3.32,2.28-5.4-.76-4-2.28-5.52c-1.52-1.52-3.36-2.28-5.52-2.28s-3.88.76-5.4,2.28-2.28,3.36-2.28,5.52.76,3.88,2.28,5.4c1.52,1.52,3.32,2.28,5.4,2.28ZM639.14,55.98c2.16,0,4-.76,5.52-2.28,1.52-1.52,2.28-3.32,2.28-5.4s-.76-4-2.28-5.52c-1.52-1.52-3.36-2.28-5.52-2.28s-3.88.76-5.4,2.28c-1.52,1.52-2.28,3.36-2.28,5.52s.76,3.88,2.28,5.4c1.52,1.52,3.32,2.28,5.4,2.28ZM672.38,108.9c0,3.28-1.08,6.2-3.24,8.76-2.56,2.96-5.8,4.44-9.72,4.44h-62.16c-3.6,0-6.68-1.28-9.24-3.84-3.92,4.96-9.12,7.44-15.6,7.44-6.96,0-12.88-2.56-17.76-7.68h-.24l-3.36,4.08h-17.04c-.64,10-4.64,17.52-12,22.56-5.76,4.08-13.08,6.12-21.96,6.12h-11.88c-10.08,0-18.12-2.6-24.12-7.8-6.64-5.44-9.96-13.36-9.96-23.76v-12.12l7.44-5.88h7.2v16.68c0,7.6,1.9,12.94,5.7,16.02,3.8,3.08,10.34,4.62,19.62,4.62,8.08,0,13.92-1.04,17.52-3.12,4.4-2.48,6.92-6.92,7.56-13.32h-7.44l-6.24-7.68v-4.56h44.04c-1.92-4.64-2.88-9.84-2.88-15.6,0-9.44,2.92-16.76,8.76-21.96,4.88-4.4,11.12-6.64,18.72-6.72,6.8,0,12.36,1.6,16.68,4.8,5.28,4,7.92,9.76,7.92,17.28v19.2c0,.72.2,1.4.6,2.04.64.64,1.36.96,2.16.96h24.36c-1.84-2.32-3.28-5.08-4.32-8.28-.88-3.04-1.32-6.08-1.32-9.12,0-7.04,2.04-12.92,6.12-17.64,5.2-6.24,12.52-9.36,21.96-9.36,6.72,0,12.32,1.8,16.8,5.4,4.88,4.16,7.32,9.76,7.32,16.8v21.24ZM584.06,87.66c0-2.96-.92-5.36-2.76-7.2-1.68-1.84-4.08-2.76-7.2-2.76-3.92,0-7.06,1.52-9.42,4.56-2.36,3.04-3.54,7.12-3.54,12.24,0,5.6,1.2,10.16,3.6,13.68,2.4,3.52,5.48,5.28,9.24,5.28,3.44,0,6.8-1.64,10.08-4.92v-20.88ZM657.74,87.66c0-3.28-1.12-5.92-3.36-7.92-1.76-1.36-3.8-2.04-6.12-2.04-5.2,0-8.96,2.04-11.28,6.12-1.52,2.56-2.28,5.8-2.28,9.72,0,5.36,1.68,9.56,5.04,12.6,2.72,2.48,6.28,3.72,10.68,3.72h4.32c2,0,3-1,3-3v-19.2ZM742.22,106.86c0,.8-.28,1.48-.84,2.04-.64.64-1.4.96-2.28.96h-23.76v-42.96h-14.64v51c0,13.76-7.08,20.64-21.24,20.64-2.4,0-4.88-.2-7.44-.6v5.16l5.88,7.32c1.68.08,3.24.12,4.68.12,8.4,0,15.48-2.12,21.24-6.36,6.96-5.12,10.76-12.48,11.4-22.08h28.56c4,0,7.24-1.52,9.72-4.56,2.16-2.4,3.24-5.28,3.24-8.64V36.18h-14.52v70.68ZM773.3,125.1h7.2l7.44-6V36.18h-14.64v88.92ZM852.86,55.98c2.16,0,4-.76,5.52-2.28,1.52-1.52,2.28-3.32,2.28-5.4s-.76-4-2.28-5.52c-1.52-1.52-3.36-2.28-5.52-2.28s-3.98.76-5.46,2.28c-1.48,1.52-2.22,3.36-2.22,5.52s.74,3.98,2.22,5.46c1.48,1.48,3.3,2.22,5.46,2.22ZM922.34,81.78c-6.24-8.56-14.52-14.72-24.84-18.48l25.08-15.24v-13.56l-42.6,24.48v13.68c0,.64.28.96.84.96,11.44,1.2,20.44,5.68,27,13.44,4.88,5.6,7.64,12.16,8.28,19.68,0,2.08-1.04,3.12-3.12,3.12h-52.8v-42.96h-14.64v51c0,13.76-7.08,20.64-21.24,20.64-2.4,0-4.88-.2-7.44-.6v5.16l5.88,7.32c1.92.08,3.4.12,4.44.12,8.48,0,15.6-2.08,21.36-6.24,7.04-5.12,10.88-12.52,11.52-22.2h57.6c3.84,0,6.98-1.36,9.42-4.08,2.44-2.72,3.66-6.24,3.66-10.56,0-9.28-2.8-17.84-8.4-25.68ZM1074.26,36.18h14.52v72.72c0,3.36-1.08,6.24-3.24,8.64-2.48,3.04-5.72,4.56-9.72,4.56h-27.6c-3.6,0-6.68-1.28-9.24-3.84-3.92,4.96-9.12,7.44-15.6,7.44-6.96,0-12.88-2.56-17.76-7.68h-.24l-3.36,4.08h-28.32c-.64,9.6-4.44,16.96-11.4,22.08-5.76,4.24-12.84,6.36-21.24,6.36-1.44,0-3-.04-4.68-.12l-5.88-7.32v-5.16c2.56.4,5.04.6,7.44.6,14.16,0,21.24-6.88,21.24-20.64v-51h14.64v42.96h26.64c-1.92-4.64-2.88-9.84-2.88-15.6,0-9.44,2.92-16.76,8.76-21.96,4.88-4.4,11.12-6.64,18.72-6.72,6.8,0,12.36,1.6,16.68,4.8,5.28,4,7.92,9.76,7.92,17.28v19.2c0,.72.2,1.4.6,2.04.64.64,1.36.96,2.16.96h18.72c.88,0,1.64-.32,2.28-.96.56-.56.84-1.24.84-2.04V36.18ZM1035.02,87.66c0-2.96-.92-5.36-2.76-7.2-1.68-1.84-4.08-2.76-7.2-2.76-3.92,0-7.06,1.52-9.42,4.56-2.36,3.04-3.54,7.12-3.54,12.24,0,5.6,1.2,10.16,3.6,13.68,2.4,3.52,5.48,5.28,9.24,5.28,3.44,0,6.8-1.64,10.08-4.92v-20.88ZM1105.34,36.18v88.92h7.2l7.44-6V36.18h-14.64Z"/>
  <path class="cls-5" d="M73.22,217.04h-33.12v85.92h33.12c10.08,0,18.2-3.36,24.36-10.08,7.04-7.68,10.56-18.64,10.56-32.88,0-12.4-2.72-22.4-8.16-30-6.24-8.64-15.16-12.96-26.76-12.96ZM71.3,293.24h-20.28v-66.48h20.28c17.28,0,25.92,11.08,25.92,33.24s-8.64,33.24-25.92,33.24ZM136.4,218.9c1.16,1.16,1.74,2.54,1.74,4.14,0,1.68-.58,3.1-1.74,4.26-1.16,1.16-2.58,1.74-4.26,1.74s-2.98-.58-4.14-1.74c-1.16-1.16-1.74-2.58-1.74-4.26s.58-2.98,1.74-4.14c1.16-1.16,2.54-1.74,4.14-1.74,1.68,0,3.1.58,4.26,1.74ZM127.1,241.28h9.72v61.68h-9.72v-61.68ZM198.5,250.52c-4.72-7.04-11-10.56-18.84-10.56-7.28,0-13.32,2.64-18.12,7.92-5.44,6.24-8.16,14.64-8.16,25.2,0,9.84,2.6,17.6,7.8,23.28,4.88,5.28,10.84,7.92,17.88,7.92s13.36-3.48,18.48-10.44v3.96c0,7.92-1.16,13.52-3.48,16.8-2.72,3.84-7.28,5.76-13.68,5.76-4.72,0-8.48-1.08-11.28-3.24-1.92-1.52-3.12-3.88-3.6-7.08h-10.08c.48,5.44,2.64,9.8,6.48,13.08,4.32,3.68,10.32,5.52,18,5.52,9.84,0,16.92-2.64,21.24-7.92,4.32-5.2,6.48-14.48,6.48-27.84v-51.6h-9.12v9.24ZM193.16,289.16c-2.92,4-7.02,6-12.3,6s-9.04-1.76-12-5.28c-3.52-4-5.28-9.8-5.28-17.4s1.54-13.02,4.62-17.22c3.08-4.2,7.26-6.3,12.54-6.3,4.88,0,8.8,1.84,11.76,5.52,3.36,4.16,5.04,10.16,5.04,18,0,7.12-1.46,12.68-4.38,16.68ZM237.2,218.9c1.16,1.16,1.74,2.54,1.74,4.14,0,1.68-.58,3.1-1.74,4.26-1.16,1.16-2.58,1.74-4.26,1.74s-2.98-.58-4.14-1.74c-1.16-1.16-1.74-2.58-1.74-4.26s.58-2.98,1.74-4.14c1.16-1.16,2.54-1.74,4.14-1.74,1.68,0,3.1.58,4.26,1.74ZM227.9,241.28h9.72v61.68h-9.72v-61.68ZM282.98,294.32l1.08,8.64c-4.96.88-8.72,1.32-11.28,1.32-7.92,0-11.88-3.24-11.88-9.72v-45.36h-8.4v-7.92h8.4v-12.6l9.72-4.44v17.04h12.6v7.92h-12.6v41.04c0,1.44.5,2.66,1.5,3.66,1,1,2.3,1.5,3.9,1.5,1.52,0,3.84-.36,6.96-1.08ZM350.54,295.76c-2.64,0-3.96-1.52-3.96-4.56v-34.44c0-11.2-7.72-16.8-23.16-16.8-9.52,0-16.4,2.44-20.64,7.32-2.48,2.88-3.84,7.04-4.08,12.48h9.96c.64-7.2,5.4-10.8,14.28-10.8s13.92,3.08,13.92,9.24l-.12,5.16-20.16,4.56c-7.36,1.68-12.2,3.4-14.52,5.16-4.08,3.12-6.12,7.56-6.12,13.32,0,5.04,1.6,9.16,4.8,12.36,3.68,3.68,8.84,5.52,15.48,5.52,9.6,0,16.6-3,21-9,.56,5.84,4.04,8.76,10.44,8.76,1.52,0,3.64-.48,6.36-1.44v-7.92c-.16.08-.48.2-.96.36-1.36.48-2.2.72-2.52.72ZM336.86,282.2c0,2.96-1.28,5.6-3.84,7.92-4,3.76-8.88,5.64-14.64,5.64-8.16,0-12.24-3.16-12.24-9.48,0-2.72,1.06-4.84,3.18-6.36,2.12-1.52,6.02-3,11.7-4.44l15.84-4.08v10.8ZM369.14,217.04h9.84v85.92h-9.84v-85.92ZM420.98,217.04h67.32v9.72h-28.08v76.2h-10.92v-76.2h-28.32v-9.72ZM529.34,239.84c.96,0,2.12.12,3.48.36v10.08c-6.4.08-10.8,1-13.2,2.76-4.4,3.2-6.6,9.16-6.6,17.88v32.04h-9.84v-61.68h9.12v11.28c3.6-8.48,9.28-12.72,17.04-12.72ZM598.34,295.76c-2.64,0-3.96-1.52-3.96-4.56v-34.44c0-11.2-7.72-16.8-23.16-16.8-9.52,0-16.4,2.44-20.64,7.32-2.48,2.88-3.84,7.04-4.08,12.48h9.96c.64-7.2,5.4-10.8,14.28-10.8s13.92,3.08,13.92,9.24l-.12,5.16-20.16,4.56c-7.36,1.68-12.2,3.4-14.52,5.16-4.08,3.12-6.12,7.56-6.12,13.32,0,5.04,1.6,9.16,4.8,12.36,3.68,3.68,8.84,5.52,15.48,5.52,9.6,0,16.6-3,21-9,.56,5.84,4.04,8.76,10.44,8.76,1.52,0,3.64-.48,6.36-1.44v-7.92c-.16.08-.48.2-.96.36-1.36.48-2.2.72-2.52.72ZM584.66,282.2c0,2.96-1.28,5.6-3.84,7.92-4,3.76-8.88,5.64-14.64,5.64-8.16,0-12.24-3.16-12.24-9.48,0-2.72,1.06-4.84,3.18-6.36,2.12-1.52,6.02-3,11.7-4.44l15.84-4.08v10.8ZM616.7,241.28h9.72v61.68h-9.72v-61.68ZM626,218.9c1.16,1.16,1.74,2.54,1.74,4.14,0,1.68-.58,3.1-1.74,4.26-1.16,1.16-2.58,1.74-4.26,1.74s-2.98-.58-4.14-1.74c-1.16-1.16-1.74-2.58-1.74-4.26s.58-2.98,1.74-4.14c1.16-1.16,2.54-1.74,4.14-1.74,1.68,0,3.1.58,4.26,1.74ZM696.98,256.52v46.44h-9.72v-42.48c0-3.68-1.14-6.6-3.42-8.76-2.28-2.16-5.38-3.24-9.3-3.24-5.12,0-9.2,1.88-12.24,5.64-3.04,3.76-4.56,8.76-4.56,15v33.84h-9.84v-61.68h9.12v10.44c4.96-7.84,11.76-11.76,20.4-11.76,6,0,10.76,1.5,14.28,4.5,3.52,3,5.28,7.02,5.28,12.06ZM726.8,218.9c1.16,1.16,1.74,2.54,1.74,4.14,0,1.68-.58,3.1-1.74,4.26-1.16,1.16-2.58,1.74-4.26,1.74s-2.98-.58-4.14-1.74c-1.16-1.16-1.74-2.58-1.74-4.26s.58-2.98,1.74-4.14c1.16-1.16,2.54-1.74,4.14-1.74,1.68,0,3.1.58,4.26,1.74ZM717.5,241.28h9.72v61.68h-9.72v-61.68ZM797.78,256.52v46.44h-9.72v-42.48c0-3.68-1.14-6.6-3.42-8.76-2.28-2.16-5.38-3.24-9.3-3.24-5.12,0-9.2,1.88-12.24,5.64-3.04,3.76-4.56,8.76-4.56,15v33.84h-9.84v-61.68h9.12v10.44c4.96-7.84,11.76-11.76,20.4-11.76,6,0,10.76,1.5,14.28,4.5,3.52,3,5.28,7.02,5.28,12.06ZM858.98,250.52c-4.72-7.04-11-10.56-18.84-10.56-7.28,0-13.32,2.64-18.12,7.92-5.44,6.24-8.16,14.64-8.16,25.2,0,9.84,2.6,17.6,7.8,23.28,4.88,5.28,10.84,7.92,17.88,7.92s13.36-3.48,18.48-10.44v3.96c0,7.92-1.16,13.52-3.48,16.8-2.72,3.84-7.28,5.76-13.68,5.76-4.72,0-8.48-1.08-11.28-3.24-1.92-1.52-3.12-3.88-3.6-7.08h-10.08c.48,5.44,2.64,9.8,6.48,13.08,4.32,3.68,10.32,5.52,18,5.52,9.84,0,16.92-2.64,21.24-7.92,4.32-5.2,6.48-14.48,6.48-27.84v-51.6h-9.12v9.24ZM853.64,289.16c-2.92,4-7.02,6-12.3,6s-9.04-1.76-12-5.28c-3.52-4-5.28-9.8-5.28-17.4s1.54-13.02,4.62-17.22c3.08-4.2,7.26-6.3,12.54-6.3,4.88,0,8.8,1.84,11.76,5.52,3.36,4.16,5.04,10.16,5.04,18,0,7.12-1.46,12.68-4.38,16.68ZM972.14,217.04h10.92v85.92h-10.92v-39.12h-44.28v39.12h-10.92v-85.92h10.92v37.08h44.28v-37.08ZM1043.9,241.28h9.72v61.68h-9.72v-9.72c-4.4,7.36-10.96,11.04-19.68,11.04-6,0-10.78-1.5-14.34-4.5-3.56-3-5.34-7.02-5.34-12.06v-46.44h9.72v42.48c0,3.6,1.16,6.48,3.48,8.64,2.32,2.16,5.44,3.24,9.36,3.24,5.12,0,9.2-1.86,12.24-5.58,3.04-3.72,4.56-8.74,4.56-15.06v-33.72ZM1122.38,249.56c-4.72-6.4-11.44-9.6-20.16-9.6-8.24,0-14.64,3.2-19.2,9.6v-32.52h-9.72v85.92h8.88v-8.4c4.48,6.48,11,9.72,19.56,9.72,7.6,0,13.8-2.56,18.6-7.68,5.52-5.92,8.28-14.2,8.28-24.84,0-9.2-2.08-16.6-6.24-22.2ZM1113.44,288.92c-3.24,4.08-7.58,6.12-13.02,6.12-4.88,0-8.88-1.76-12-5.28-3.6-4.16-5.4-9.92-5.4-17.28s1.58-12.7,4.74-16.98c3.16-4.28,7.38-6.42,12.66-6.42s9.16,1.88,12.36,5.64c3.68,4.32,5.52,10.24,5.52,17.76,0,6.88-1.62,12.36-4.86,16.44Z"/>
  <g>
    <path class="cls-2" d="M1222.69,199.09l-31.77,31.75c-7.07,7.07-10.96,16.47-10.96,26.45s3.89,19.39,10.96,26.45l31.77,31.77c14.58,14.58,38.32,14.58,52.91,0l19.18-19.2,12.57-12.57c7.07-7.07,10.96-16.46,10.96-26.45,0-.51-.01-1.01-.04-1.51-.37-9.43-4.21-18.24-10.92-24.95l-31.75-31.75c-1.21-1.22-2.49-2.32-3.83-3.33-14.64-11.15-35.7-10.03-49.08,3.33ZM1254.61,220.08l31.75,31.75c.38.38.71.79,1,1.23.11.15.19.31.27.46.06.08.11.18.14.26.08.14.14.28.2.43.06.12.11.24.15.37.02.05.04.11.06.15,0,0,.01.05.04.12.01.04.02.07.04.12.05.12.08.25.11.37.01.05.02.11.04.17.02.08.04.18.06.27.06.21.09.43.11.64.01.12.02.24.04.36.01.18.02.34.02.52v.02c0,1.03-.21,2.07-.64,3.04-.37.88-.91,1.7-1.62,2.41l-17.73,17.74-14.03,14.03c-3.02,3.01-7.92,3.01-10.93,0l-31.77-31.77c-1.51-1.51-2.26-3.49-2.26-5.47s.76-3.95,2.26-5.47l31.77-31.75c2.7-2.72,6.92-2.99,9.95-.81.34.23.68.5.98.81Z"/>
    <path class="cls-3" d="M1271.77,195.76c1.34,1.01,2.62,2.11,3.83,3.33l31.75,31.75c6.71,6.71,10.55,15.52,10.92,24.95.02.5.04,1,.04,1.51,0,10-3.89,19.39-10.96,26.45l-12.57,12.57c-7.97-4.19-16.79-9.51-26.15-15.82l17.73-17.74c.71-.71,1.26-1.53,1.62-2.41.43-.96.64-2,.64-3.04v-.02c0-.18-.01-.34-.02-.52-.01-.12-.02-.24-.04-.36-.04-.23-.07-.44-.11-.64-.02-.09-.04-.19-.06-.27-.01-.06-.02-.12-.04-.17-.02-.12-.06-.25-.11-.37-.01-.05-.02-.08-.04-.12-.02-.07-.04-.12-.04-.12-.02-.05-.04-.11-.06-.15-.05-.13-.09-.25-.15-.37-.06-.14-.12-.28-.2-.43-.04-.08-.08-.18-.14-.26-.08-.15-.17-.31-.27-.46-.28-.44-.62-.85-1-1.23l-31.75-31.75c-.31-.31-.64-.58-.98-.81l.98-6.34,17.16-17.17Z"/>
    <path class="cls-6" d="M1222.68,117.48l-31.75,31.76c-7.07,7.07-10.96,16.46-10.96,26.45s3.89,19.39,10.96,26.45l14.35,14.34,17.4-17.4c1.21-1.22,2.49-2.32,3.82-3.34l-14.59-14.6c-1.51-1.51-2.27-3.49-2.27-5.46s.76-3.96,2.27-5.47l31.75-31.75c3.02-3.02,7.91-3.02,10.94,0l31.75,31.75c1.51,1.51,2.27,3.5,2.27,5.47s-.76,3.95-2.27,5.46l-14.59,14.59s-.01.01-.01.01l-17.15,17.17c-1.57,1.56-3.64,2.31-5.68,2.24-1.45,1.37-2.91,2.77-4.32,4.13-.33.23-.64.5-.93.79l-3.92,3.93c-.14.14-.29.28-.43.42-7.3,7.17-12.82,12.81-12.82,12.81h0c6.47,4.95,14.35,7.62,22.63,7.62s16.16-2.67,22.63-7.62c1.34-1.01,2.62-2.13,3.82-3.34l23.74-23.74,8.02-8.01c7.07-7.07,10.96-16.46,10.96-26.45s-3.89-19.39-10.96-26.45l-31.76-31.76c-14.59-14.59-38.32-14.59-52.91,0Z"/>
    <path class="cls-1" d="M1222.68,35.17l-31.74,31.75c-3.78,3.78-6.66,8.23-8.5,13.09-1.62,4.21-2.47,8.73-2.47,13.36,0,10,3.9,19.39,10.97,26.45l14.69,14.7,17.05-17.05c1.34-1.34,2.76-2.56,4.23-3.65l-14.99-14.99c-1.52-1.51-2.26-3.49-2.26-5.47s.75-3.95,2.26-5.47l31.75-31.75c3.02-3.01,7.91-3.01,10.93,0l31.75,31.75c1.51,1.52,2.26,3.5,2.26,5.47s-.76,3.96-2.26,5.47l-13.45,13.46s-.01.01-.02.01l-1.52,1.53-16.77,16.77c-1.39,1.38-3.17,2.13-4.96,2.24-1.67,1.59-3.32,3.19-4.92,4.75-.37.24-.72.53-1.06.87l-7.99,8-1.51,1.49-1.4,1.4c-2.68,2.66-4.65,4.64-5.44,5.45l-.43.41h0c13.16,9.73,31.3,9.72,44.46,0,1.47-1.09,2.88-2.3,4.21-3.64l17.06-17.06,7.14-7.14,7.56-7.56c7.07-7.07,10.97-16.46,10.97-26.45s-3.9-19.39-10.97-26.45l-31.77-31.75c-14.58-14.58-38.31-14.58-52.91,0Z"/>
    <path class="cls-4" d="M1209.66,93.37c0,1.98.75,3.96,2.26,5.47l14.99,14.99c-1.47,1.09-2.89,2.31-4.23,3.65l-17.05,17.05-14.69-14.7c-7.07-7.07-10.97-16.46-10.97-26.45,0-4.64.84-9.15,2.47-13.36,14.22-14.5,27.22,13.36,27.22,13.36Z"/>
  </g>
</svg>