<?xml version="1.0" encoding="UTF-8"?>
<svg id="Layer_2" data-name="Layer 2" xmlns="http://www.w3.org/2000/svg" viewBox="0 0 131.09 65.37">
  <defs>
    <style>
      .cls-1 {
        fill: #2e3386;
      }
    </style>
  </defs>
  <g id="BACKGROUND">
    <g>
      <polygon class="cls-1" points="0 65.37 26.16 52.93 26.16 40.38 0 52.82 0 65.37"/>
      <polygon class="cls-1" points="0 25.17 12.85 31.19 0 37.28 0 49.85 26.16 37.43 26.16 24.89 0 12.45 0 25.17"/>
      <polygon class="cls-1" points="16.25 17.22 26.16 12.51 26.16 0 3.09 10.95 16.25 17.22"/>
      <g>
        <path class="cls-1" d="M82.27,26c.73,0,1.2-.6,1.2-1.18,0-.76-.47-1.33-1.2-1.33-.6,0-1.18,.58-1.18,1.33,0,.58,.58,1.18,1.18,1.18"/>
        <path class="cls-1" d="M56.55,43.85h-2.78v9.31h2.78c2.98,0,5.31-1.18,5.31-4.73s-2.33-4.58-5.31-4.58m-.16,7.53h-.87v-5.91h.87c2.38,0,3.55,.58,3.55,2.95,0,2.24-1.18,2.95-3.55,2.95"/>
        <path class="cls-1" d="M79.18,26c.58,0,1.15-.6,1.15-1.18,0-.76-.58-1.33-1.15-1.33-.76,0-1.18,.58-1.18,1.33,0,.58,.42,1.18,1.18,1.18"/>
        <polygon class="cls-1" points="45.38 53.16 51.42 53.16 51.42 51.38 47.13 51.38 47.13 49.34 50.97 49.34 50.97 47.54 47.13 47.54 47.13 45.47 51.42 45.47 51.42 43.85 45.38 43.85 45.38 53.16"/>
        <path class="cls-1" d="M41.22,47.85l-.73-.27c-1.07-.4-1.64-.78-1.64-1.33,0-.67,.73-1.07,1.64-1.07,1,0,1.75,.29,2.8,.76v-1.8c-.58-.29-1.64-.6-2.8-.6-2.24,0-3.42,1.33-3.42,2.67,0,1.49,.82,2.4,2.35,2.98,1.33,.51,2.07,.6,2.07,1.49,0,.58-.73,.87-1.75,.87s-2.07-.29-2.98-.6v1.8c.62,.2,1.64,.58,3.29,.58,2.2,0,3.38-1.04,3.38-2.64s-.56-2.22-2.2-2.82"/>
        <path class="cls-1" d="M107.83,43.54c-2.95,0-4.26,2.09-4.26,4.89s1.31,4.89,4.26,4.89,4.44-2.07,4.44-4.89-1.49-4.89-4.44-4.89m0,8c-1.62,0-2.35-1.02-2.35-3.11s.73-3.24,2.35-3.24,2.51,1.18,2.51,3.24-.87,3.11-2.51,3.11"/>
        <path class="cls-1" d="M119.94,49.34c0,1.44-.58,2.2-2.07,2.2-1.33,0-1.91-.76-1.91-2.2v-5.49h-1.75v5.91c0,2.35,1.6,3.55,3.66,3.55,2.22,0,3.84-1.2,3.84-3.55v-5.91h-1.78v5.49Z"/>
        <path class="cls-1" d="M117.3,38.81c.73,0,1.33-.58,1.33-1.31,0-.6-.6-1.18-1.33-1.18-.6,0-1.18,.58-1.18,1.18,0,.73,.58,1.31,1.18,1.31"/>
        <path class="cls-1" d="M124.84,34.42c.57,.74,1.47,1.31,2.78,1.31,3.02,0,4.15-2.98,3.07-4.78l-1.51-2.47h-2.53l-1.75,3c-.91,1.55-1.69,1.89-2.73,1.89h-.11l-7.29-5.64v2.42l4.18,3.22h-6.66c-1.49,0-2.09-.73-2.82-1.91l-1.84-2.98h-2.53l-1.75,3c-.91,1.55-1.69,1.89-2.73,1.89h-.87c-.31-3.24-1.49-5.04-3.71-5.04-2.07,0-3.4,1.49-3.4,3.73s1.33,3.24,3.82,3.24h1.33c-.11,1.75-1.33,2.49-3.24,2.49-.42,0-1.02-.16-1.6-.16v1.8c.58,.13,1.18,.13,1.75,.13,2.51,0,4.73-1.02,5.04-4.26h.95c1.12,0,1.94-.36,2.6-.88,.57,.74,1.47,1.31,2.78,1.31,1.62,0,2.89-.69,2.93-1.82,.53,.79,1.62,1.39,3.24,1.4h0s10.15,0,10.15,0h0c1.05-.03,1.83-.38,2.46-.88m3.13-4.49l.94,1.53c.8,1.31,.16,2.35-1.13,2.35-.72,0-1.31-.29-1.75-.73,.21-.31,.41-.63,.6-.93l1.35-2.22Zm-31.53,3.44c-1.44,0-2.02-.47-2.02-1.47,0-.91,.58-1.49,1.6-1.49,1.18,0,1.75,.89,1.75,2.95h-1.33Zm9.77,.44c-.72,0-1.31-.29-1.75-.73,.21-.31,.41-.63,.6-.93l1.35-2.22,1.22,1.98c.47,.76,.07,1.91-1.42,1.91"/>
        <path class="cls-1" d="M126.87,43.85h-2.64v9.31h1.78v-2.8h.87c2.67,0,4-1.49,4-3.4s-1.33-3.11-4-3.11m0,4.86h-.87v-3.24h.87c1.22,0,2.09,.47,2.09,1.62,0,1.02-.76,1.62-2.09,1.62"/>
        <polygon class="cls-1" points="63.68 53.16 69.59 53.16 69.59 51.38 65.43 51.38 65.43 49.34 69.14 49.34 69.14 47.54 65.43 47.54 65.43 45.47 69.59 45.47 69.59 43.85 63.68 43.85 63.68 53.16"/>
        <path class="cls-1" d="M101.86,46.81c0-1.78-1.33-2.95-4-2.95h-2.64v9.31h1.78v-3.11l4.86,3.69v-2.29l-2.1-1.54c.13-.04,.23-.08,.32-.12,1.18-.58,1.78-1.64,1.78-2.98m-3.98,1.62h-.76v-2.95h.76c1.31,0,2.22,.31,2.22,1.49s-.76,1.47-2.22,1.47"/>
        <path class="cls-1" d="M78.29,46.81c0-1.78-1.33-2.95-4-2.95h-2.64v9.31h1.78v-3.11l4.86,3.69v-2.29l-2.1-1.55c.15-.04,.26-.09,.37-.14,1.13-.58,1.73-1.64,1.73-2.95m-3.98,1.62h-.76v-2.95h.76c1.31,0,2.22,.31,2.22,1.49s-.76,1.47-2.22,1.47"/>
        <path class="cls-1" d="M90.84,33.37h-2.49c-1.22,0-1.93-.73-1.93-1.91s1.02-1.8,2.35-1.8c.6,0,1.33,0,1.91,.31v-1.91c-.58-.31-1.31-.47-2.22-.47-2.51,0-3.98,1.8-3.98,3.86,0,.71,.31,1.44,.6,1.91h-2.2c-.76,0-1.07-.31-1.07-1.04v-5.15h-2.07v1c-2.78,.62-4.86,2.24-4.86,4.15,0,1.64,1.18,2.67,2.8,2.67,.73,0,1.64-.29,2.38-.87,.42,.71,1.18,1.18,2.35,1.18h8.42v-1.93Zm-11.08-1.04c-.42,.31-1.02,.58-1.75,.58-.78,0-1.13-.22-1.13-.73,0-.96,1.11-1.58,2.89-2.04v2.2Z"/>
        <path class="cls-1" d="M88.93,49.45h2.35v1.8c-.6,.29-1.18,.29-1.49,.29-2.04,0-3.09-1.02-3.09-3.11s.82-3.24,3.09-3.24c.89,0,1.75,.18,2.84,.58v-1.6c-.75-.42-1.89-.62-2.95-.62-3.42,0-4.89,2.09-4.89,4.89s1.47,4.89,4.58,4.89c1.18,0,2.8-.31,3.71-1.04v-4.42h-4.15v1.6Z"/>
        <path class="cls-1" d="M41.65,35.3v-6.66h-2.07v6.93c0,1.07-.42,1.93-1.75,1.93-.44,0-.91-.13-1.07-.13v1.75c.47,.16,.91,.16,1.22,.16,2.51,0,3.66-1.49,3.66-3.98"/>
        <path class="cls-1" d="M68.68,31.9v-3.73h-2.07v3.73c0,.73-.44,1.47-1.33,1.47-.82,0-1.44-.49-1.44-1.47v-2.82h-2.09v2.82c0,.73-.53,1.47-1.35,1.47-.49,0-1.44-.27-1.44-1.47v-2.82h-2.09v2.82c0,.73-.42,1.47-1.75,1.47h-4.4v-1.04c0-2.82-3.42-4.15-6.09-4.26v1.91c2.15,.47,4,.89,4,2.91,0,.21,0,.36-.01,.49h-4.87v1.93h11.66c1.05-.08,1.96-.52,2.53-1.07,.58,.76,1.44,1.07,2.35,1.07,1,0,1.91-.47,2.49-1.07,.6,.76,1.49,1.07,2.51,1.07,2.07,0,3.4-1.64,3.4-3.4"/>
      </g>
    </g>
  </g>
</svg>