<?xml version="1.0" standalone="no"?>
<!DOCTYPE svg PUBLIC "-//W3C//DTD SVG 20010904//EN"
 "http://www.w3.org/TR/2001/REC-SVG-20010904/DTD/svg10.dtd">
<svg version="1.0" xmlns="http://www.w3.org/2000/svg"
 width="801.000000pt" height="801.000000pt" viewBox="0 0 801.000000 801.000000"
 preserveAspectRatio="xMidYMid meet">
<metadata>
Created by potrace 1.14, written by Peter Selinger 2001-2017
</metadata>
<g transform="translate(0.000000,801.000000) scale(0.100000,-0.100000)"
fill="#000000" stroke="none">
<path d="M620 6974 c-36 -7 -103 -32 -150 -55 -68 -34 -102 -59 -170 -128 -93
-94 -146 -183 -175 -296 -20 -78 -20 -242 0 -320 47 -182 177 -346 337 -424
156 -77 -8 -71 2045 -71 l1843 0 0 -2042 0 -2043 -29 -60 c-55 -116 -161 -185
-283 -185 -131 0 -233 62 -290 178 l-33 67 -5 1831 -5 1831 -27 35 c-55 72
-164 86 -235 32 -68 -52 -63 106 -63 -1920 0 -2040 -5 -1884 68 -2034 54 -111
177 -233 292 -289 112 -55 208 -74 330 -68 169 9 302 70 425 192 80 80 124
151 163 257 l27 73 3 2237 2 2238 -2002 2 -2003 3 -47 22 c-66 30 -133 96
-165 161 -22 46 -28 70 -28 132 0 127 64 234 173 287 l57 28 1295 5 c1438 6
1330 0 1380 71 63 88 30 215 -67 255 -49 21 -2567 19 -2663 -2z"/>
<path d="M3705 6967 c-99 -55 -112 -197 -26 -270 69 -58 165 -55 227 7 136
136 -33 358 -201 263z"/>
<path d="M4195 6967 c-100 -56 -113 -196 -26 -270 69 -58 165 -55 227 7 135
135 -34 358 -201 263z"/>
<path d="M4763 6965 c-46 -28 -83 -91 -83 -143 0 -73 54 -141 128 -162 24 -6
451 -10 1264 -10 1188 0 1229 -1 1278 -19 100 -38 164 -110 195 -216 43 -145
-30 -302 -174 -372 l-56 -28 -1102 -5 c-1098 -5 -1102 -5 -1130 -26 -48 -36
-73 -82 -73 -136 0 -57 15 -91 60 -133 l31 -30 1116 -3 c1248 -3 1167 -7 1323
70 157 77 289 241 335 418 22 85 23 235 1 320 -30 120 -80 206 -175 301 -69
69 -103 94 -171 128 -152 74 -79 71 -1475 71 l-1250 0 -42 -25z"/>
</g>
</svg>
