<svg class="navbar-brand-svg" id="Layer_1" xmlns="http://www.w3.org/2000/svg" width="200" height="60" viewBox="0 0 481.28 139.81">
<defs><style>.cls-1{fill:#231f20;}</style></defs>
<path class="cls-1" d="M8.92,82.71c.06-21.57,14.9-44.83,31.36-46.31,7.66-.69,14.95,3.39,15.92,3.97,7.12,4.23,10.83,11.08,13.61,16.65h10.48c-3.49-5.07-7.51-11.71-7.51-17.82h22.54V126.57h-22.54c0-6.12,4.02-12.75,7.51-17.82h-10.48c-2.79,5.57-6.49,12.42-13.62,16.65-.96,.58-8.26,4.66-15.91,3.97-16.5-1.49-31.42-24.92-31.36-46.65M23.09,11.59H95.33V28.36H23.09V11.59Zm48.48,71.29c0-18.52-8.56-27.61-20.79-27.61-11.53,0-20.44,7.16-20.44,27.61s8.91,27.61,20.44,27.61c12.23,0,20.79-9.09,20.79-27.61"></path>
<path class="cls-1" d="M130.39,126.39c-14.16,0-22.19-9.26-22.19-22.89V11.59h24.81v27.43h26.56v18.87h-26.56v41.06c0,5.24,2.28,7.69,7.69,7.69h18.87v19.75h-29.18Z"></path>
<path class="cls-1" d="M172.36,126.39V39.02h22.37c0,9.09-3.49,19.92-7.51,26.56h10.49c3.84-18,11.01-28.31,29.53-28.31,2.62,0,3.84,0,5.24,.17v25.51c-3.49-.35-6.64-.53-9.61-.53-17.82,0-25.69,6.82-25.69,30.41v33.55h-24.81Z"></path>
<path class="cls-1" d="M244.62,97.91V39.02h24.81v53.12c0,11.71,5.07,16.42,13.1,16.42,12.76,0,17.47-11.88,17.47-26.38V39.02h24.81V126.39h-23.06c.17-5.94,3.67-13.28,8.39-20.09h-10.66c-4.19,12.41-13.11,22.89-27.61,22.89-16.6,0-27.26-12.23-27.26-31.28"></path>
<path class="cls-1" d="M337.99,126.39V39.02h21.32c0,5.59-3.32,13.28-6.99,18.17h11.01c2.8-11.88,10.14-20.79,23.42-20.79,10.48,0,20.44,6.64,23.06,20.79h8.21c4.37-13.8,14.15-20.79,24.99-20.79,15.73,0,28.48,10.83,28.48,33.2v56.79h-24.81v-53.12c0-11.71-5.42-16.42-13.63-16.42-15.73,0-16.08,16.25-16.08,24.99v44.56h-24.46v-53.12c0-11.71-5.42-16.42-13.63-16.42-15.73,0-16.08,16.25-16.08,24.99v44.56h-24.81Z"></path>
</svg>