<svg width="261" height="53" viewBox="0 0 261 53" fill="none" xmlns="http://www.w3.org/2000/svg">
<g clip-path="url(#clip0_949_38)">
<path d="M91.0948 0H78.3406V34.4298H91.0948C101.923 34.4298 109.485 27.3301 109.485 17.1668C109.485 7.00338 101.923 0 91.0948 0ZM90.4712 28.6602H84.9279V5.76964H90.4712C97.3726 5.76964 102.385 10.544 102.385 17.1209C102.385 23.8124 97.3726 28.6602 90.4712 28.6602Z" fill="#031851"/>
<path d="M137.968 22.2439C137.968 15.1076 132.693 9.72776 125.694 9.72776C123.99 9.70452 122.298 10.0193 120.718 10.6535C119.138 11.2878 117.702 12.2288 116.493 13.4214C115.284 14.614 114.327 16.0342 113.678 17.5988C113.029 19.1634 112.701 20.8409 112.714 22.5329C112.714 29.839 118.456 35.1408 126.369 35.1408C130.836 35.1408 134.647 33.4393 137.118 30.3343L132.263 26.7569C130.489 28.8208 128.678 29.706 126.225 29.706C122.622 29.706 120.082 27.8714 119.435 24.7802L119.407 24.6564H137.843C137.922 23.8492 137.968 22.9319 137.968 22.2439ZM119.583 19.8866L119.62 19.749C120.474 16.777 122.673 15.0709 125.648 15.0709C128.771 15.0709 131.043 16.9054 131.441 19.7627V19.8866H119.583Z" fill="#031851"/>
<path d="M166.022 22.244C166.022 15.1076 160.746 9.72782 153.752 9.72782C152.048 9.70398 150.355 10.0182 148.775 10.6522C147.194 11.2861 145.756 12.2269 144.547 13.4195C143.337 14.6122 142.379 16.0325 141.729 17.5975C141.079 19.1624 140.751 20.8403 140.763 22.5329C140.763 29.839 146.505 35.1409 154.422 35.1409C158.885 35.1409 162.696 33.4393 165.167 30.3343L160.317 26.757C158.538 28.8208 156.727 29.706 154.274 29.706C150.676 29.706 148.131 27.8715 147.484 24.7803L147.456 24.6564H165.892C165.975 23.8492 166.022 22.9549 166.022 22.244ZM147.636 19.8866L147.673 19.749C148.528 16.7771 150.727 15.0709 153.702 15.0709C156.829 15.0709 159.097 16.9055 159.499 19.7628V19.8866H147.636Z" fill="#031851"/>
<path d="M199.947 10.4387L194.939 26.3442L194.838 26.0277L189.756 10.4341H183.936L178.697 26.3854L173.616 10.4387H166.992L175.427 34.4299H181.349L186.726 18.208L192.204 34.4299H198.076L206.132 10.4387H199.947Z" fill="#031851"/>
<path d="M227.737 10.4385V12.6995L227.566 12.5528C225.366 10.7206 222.584 9.71982 219.713 9.72758C212.784 9.72758 207.157 15.4284 207.157 22.4364C207.157 29.4444 212.789 35.1406 219.713 35.1406C222.584 35.1477 225.364 34.1488 227.566 32.32L227.737 32.1732V34.4297H233.502V10.4385H227.737ZM220.512 29.5636C216.623 29.5636 213.583 26.4311 213.583 22.4364C213.583 18.4417 216.636 15.3046 220.512 15.3046C224.388 15.3046 227.404 18.4371 227.404 22.4364C227.404 26.4357 224.383 29.5636 220.517 29.5636H220.512Z" fill="#031851"/>
<path d="M250.483 9.63135C247.748 9.63135 245.434 10.5119 243.965 12.108L243.785 12.3098V10.4385H238.117V34.4298H244.21V20.1112C244.207 19.4628 244.334 18.8203 244.584 18.2213C244.834 17.6223 245.202 17.0789 245.666 16.6227C246.13 16.1666 246.681 15.807 247.287 15.5649C247.893 15.3228 248.541 15.2032 249.194 15.2129C251.943 15.2129 253.938 17.3502 253.938 20.2992V34.4298H260.031V19.2627C260.031 13.5894 256.105 9.63135 250.483 9.63135Z" fill="#031851"/>
<path d="M57.4747 35.1178H48.4022C48.3521 35.1178 48.3024 35.1079 48.2562 35.0887C48.2099 35.0695 48.1679 35.0414 48.1327 35.006C48.0975 34.9706 48.0697 34.9286 48.0509 34.8824C48.0321 34.8363 48.0228 34.7869 48.0234 34.7371V30.6736C48.0234 30.5738 48.0633 30.4782 48.1343 30.4077C48.2054 30.3371 48.3017 30.2975 48.4022 30.2975H52.6197V4.81568H4.85038V30.2975H20.3577C20.5374 30.2953 20.715 30.3358 20.8757 30.4156C21.0364 30.4953 21.1756 30.6121 21.2816 30.7561L24.3443 35.104H0V0H57.4747V35.1178Z" fill="#03D534"/>
<path d="M34.8766 42.543L27.3146 30.2974H42.7526C42.8531 30.2974 42.9495 30.337 43.0205 30.4075C43.0915 30.478 43.1314 30.5737 43.1314 30.6734V34.737C43.1314 34.8371 43.0917 34.9333 43.0208 35.0045C42.9499 35.0758 42.8535 35.1164 42.7526 35.1176H35.9806L39.1726 40.2819C39.1981 40.3245 39.2056 40.3754 39.1935 40.4235C39.1814 40.4716 39.1506 40.513 39.1079 40.5387L35.5695 42.7035C35.5139 42.7399 35.4514 42.7648 35.3859 42.7764C35.3203 42.7881 35.2531 42.7864 35.1882 42.7713C35.1233 42.7563 35.0622 42.7283 35.0087 42.689C34.9551 42.6498 34.9101 42.6001 34.8766 42.543Z" fill="#03D534"/>
<path d="M78.9503 44.084H78.0726V51.0965H78.9503V44.084Z" fill="#808080"/>
<path d="M82.475 45.8635C82.1843 45.8525 81.8959 45.9185 81.6394 46.0547C81.3829 46.1909 81.1675 46.3924 81.0153 46.6386V45.9506H80.1653V51.0782H81.0153V48.4731C81.0153 47.299 81.5373 46.6019 82.4011 46.6019C83.1587 46.6019 83.5097 47.0101 83.5097 47.8861V51.0965H84.3597V47.8585C84.3643 46.6019 83.676 45.8635 82.475 45.8635Z" fill="#808080"/>
<path d="M87.7226 45.8635C87.4325 45.8524 87.1447 45.9184 86.8889 46.0547C86.6331 46.1909 86.4186 46.3925 86.2675 46.6386V45.9506H85.4175V51.0782H86.2675V48.4731C86.2675 47.299 86.7849 46.6019 87.6533 46.6019C88.4109 46.6019 88.7666 47.0101 88.7666 47.8861V51.0965H89.6166V47.8586C89.6166 46.6019 88.9237 45.8635 87.7226 45.8635Z" fill="#808080"/>
<path d="M92.8964 45.8637C92.3636 45.8371 91.835 45.9696 91.3788 46.2441C90.9226 46.5185 90.5596 46.9224 90.3367 47.4036C90.1138 47.8847 90.0412 48.4212 90.1282 48.9437C90.2152 49.4662 90.4579 49.9509 90.8249 50.3353C91.192 50.7196 91.6665 50.9859 92.1875 51.1C92.7084 51.214 93.2518 51.1706 93.7476 50.9751C94.2434 50.7797 94.6689 50.4413 94.9692 50.0036C95.2695 49.5658 95.4308 49.0488 95.4324 48.5192C95.4526 48.1768 95.4019 47.834 95.2835 47.5118C95.165 47.1897 94.9812 46.8951 94.7435 46.6462C94.5059 46.3974 94.2193 46.1995 93.9016 46.0649C93.5839 45.9303 93.2418 45.8618 92.8964 45.8637ZM92.8964 50.4271C91.9171 50.4271 91.2057 49.6245 91.2057 48.5192C91.2057 47.4139 91.9171 46.6021 92.8964 46.6021C93.8757 46.6021 94.5825 47.4093 94.5825 48.5192C94.5825 49.6291 93.8711 50.4501 92.8964 50.4501V50.4271Z" fill="#808080"/>
<path d="M100.347 45.9692H99.4236L97.9315 50.0419L97.4696 48.8357C97.1231 47.9184 96.7813 46.9645 96.4256 46.0243V45.9692H95.5294L97.4696 51.0418L97.4927 51.0968H98.3426L98.7722 49.9915C99.2711 48.6889 99.7762 47.388 100.287 46.0885L100.347 45.9692Z" fill="#808080"/>
<path d="M104.588 49.9913V47.6981C104.588 46.8634 104.242 45.8636 102.574 45.8636C102.09 45.8407 101.614 45.9939 101.236 46.2945C100.857 46.5951 100.602 47.0224 100.518 47.4963V47.5972H101.368V47.533C101.424 47.2568 101.577 47.0096 101.801 46.8369C102.025 46.6641 102.305 46.5775 102.588 46.5928C103.318 46.5928 103.757 46.8863 103.757 47.3771C103.757 47.7256 103.47 47.8907 102.629 48.0237H102.602C101.678 48.1751 100.25 48.4044 100.25 49.6336C100.25 50.3995 100.823 51.17 102.098 51.17C102.422 51.1894 102.746 51.1238 103.036 50.9796C103.326 50.8355 103.573 50.618 103.752 50.349C103.75 50.5649 103.759 50.7808 103.78 50.9957V51.0737H104.704V50.9728C104.638 50.6493 104.6 50.321 104.588 49.9913ZM103.77 48.7209C103.77 49.9317 102.981 50.4729 102.195 50.4729C101.535 50.4729 101.087 50.1472 101.087 49.6565C101.087 49.1657 101.488 48.9273 102.348 48.7851C102.863 48.7453 103.357 48.5608 103.77 48.2531V48.7209Z" fill="#808080"/>
<path d="M106.708 49.8311V46.6894H107.665V45.9693H106.708V44.4375L105.868 44.8136V45.9693H105.124V46.6894H105.868V49.8402C105.851 50.0141 105.875 50.1894 105.937 50.3529C105.998 50.5165 106.096 50.6642 106.223 50.785C106.35 50.9058 106.503 50.9966 106.67 51.0506C106.837 51.1046 107.015 51.1204 107.189 51.0969H107.674V50.3768H107.212C106.792 50.3768 106.708 50.0787 106.708 49.8311Z" fill="#808080"/>
<path d="M109.3 45.9692H108.45V51.0922H109.3V45.9692Z" fill="#808080"/>
<path d="M109.346 44.084H108.459V45.2122H109.346V44.084Z" fill="#808080"/>
<path d="M112.275 50.0419L111.813 48.8357C111.466 47.9184 111.125 46.9645 110.769 46.0243V45.9692H109.868L111.822 51.0418L111.845 51.0968H112.714L113.143 49.9915C113.642 48.6889 114.147 47.388 114.658 46.0885L114.705 45.9692H113.781L112.275 50.0419Z" fill="#808080"/>
<path d="M117.231 45.8638C115.804 45.8638 114.769 46.9783 114.769 48.5101C114.769 50.0419 115.772 51.161 117.259 51.161C117.768 51.1941 118.273 51.0521 118.688 50.7589C119.104 50.4656 119.405 50.0391 119.541 49.5512L119.573 49.4411H118.719V49.5329C118.614 49.8258 118.416 50.0765 118.154 50.2464C117.892 50.4163 117.581 50.4959 117.268 50.4731C116.831 50.4731 116.411 50.3007 116.101 49.9938C115.791 49.6869 115.616 49.2704 115.615 48.8357H119.615V48.7486C119.623 48.6708 119.623 48.5925 119.615 48.5147C119.523 46.8361 118.663 45.8638 117.231 45.8638ZM115.61 48.0882C115.634 47.6786 115.815 47.2938 116.117 47.0137C116.419 46.7335 116.818 46.5796 117.231 46.5838C118.312 46.5838 118.65 47.3819 118.737 48.0882H115.61Z" fill="#808080"/>
<path d="M126.212 49.5328C126.117 49.8172 125.929 50.062 125.678 50.2282C125.426 50.3944 125.127 50.4725 124.826 50.4501C123.819 50.4501 123.117 49.6613 123.117 48.533C123.117 47.4048 123.819 46.5976 124.826 46.5976C125.122 46.5857 125.414 46.6684 125.659 46.8335C125.904 46.9986 126.09 47.2374 126.188 47.5148L126.212 47.5699H127.066L127.038 47.4598C126.914 46.9843 126.625 46.5675 126.222 46.2824C125.819 45.9973 125.328 45.8621 124.835 45.9004C124.147 45.9289 123.496 46.2204 123.019 46.714C122.542 47.2076 122.276 47.8651 122.276 48.5491C122.276 49.233 122.542 49.8906 123.019 50.3842C123.496 50.8778 124.147 51.1692 124.835 51.1977C125.338 51.2382 125.84 51.1006 126.25 50.8093C126.661 50.5181 126.955 50.0919 127.08 49.6062L127.108 49.4961H126.239L126.212 49.5328Z" fill="#808080"/>
<path d="M130.198 45.8635C129.665 45.8378 129.137 45.9711 128.682 46.2462C128.226 46.5212 127.864 46.9254 127.642 47.4067C127.419 47.888 127.347 48.4244 127.435 48.9466C127.523 49.4689 127.766 49.9531 128.133 50.337C128.5 50.7209 128.975 50.9867 129.496 51.1004C130.016 51.214 130.56 51.1702 131.055 50.9746C131.551 50.779 131.976 50.4406 132.276 50.0029C132.576 49.5653 132.737 49.0484 132.739 48.519C132.76 48.1761 132.709 47.8325 132.591 47.5098C132.472 47.187 132.288 46.8919 132.05 46.6429C131.812 46.3938 131.524 46.1961 131.206 46.062C130.887 45.9279 130.544 45.8603 130.198 45.8635ZM130.198 50.4269C129.219 50.4269 128.512 49.6243 128.512 48.519C128.512 47.4137 129.219 46.6019 130.198 46.6019C131.177 46.6019 131.889 47.4091 131.889 48.519C131.889 49.6289 131.191 50.4498 130.198 50.4498V50.4269Z" fill="#808080"/>
<path d="M138.582 45.8636C138.278 45.8541 137.977 45.9316 137.716 46.0869C137.455 46.2422 137.244 46.4687 137.109 46.7396C136.982 46.4551 136.769 46.2174 136.498 46.0602C136.228 45.9029 135.915 45.8342 135.603 45.8636C135.356 45.8679 135.114 45.9326 134.898 46.0517C134.682 46.1709 134.499 46.341 134.365 46.5469V45.9599H133.501V51.0874H134.346V48.4824C134.346 48.0238 134.434 46.602 135.515 46.602C135.977 46.602 136.471 46.7579 136.471 47.8953V51.1058H137.321V48.4044C137.321 47.3037 137.783 46.6203 138.499 46.6203C139.137 46.6203 139.446 47.0423 139.446 47.9137V51.1241H140.292V47.8862C140.31 46.5974 139.682 45.8636 138.582 45.8636Z" fill="#808080"/>
<path d="M146.435 45.8638C146.131 45.8531 145.83 45.9301 145.568 46.0856C145.307 46.241 145.096 46.4682 144.962 46.7398C144.838 46.4933 144.651 46.2831 144.42 46.1301C144.189 45.977 143.922 45.8863 143.645 45.8669C143.368 45.8474 143.091 45.8999 142.841 46.0192C142.59 46.1385 142.376 46.3204 142.218 46.5471V45.9601H141.354V51.0876H142.204V48.4826C142.204 48.0239 142.287 46.6022 143.373 46.6022C143.835 46.6022 144.324 46.7581 144.324 47.8955V51.106H145.174V48.4046C145.174 47.3039 145.636 46.6205 146.352 46.6205C146.99 46.6205 147.299 47.0425 147.299 47.9139V51.1243H148.149V47.8864C148.158 46.5976 147.526 45.8638 146.435 45.8638Z" fill="#808080"/>
<path d="M152.519 48.5741C152.519 49.7436 151.997 50.4453 151.133 50.4453C150.376 50.4453 150.025 50.0371 150.025 49.1611V45.9507H149.175V49.1887C149.175 50.4453 149.863 51.1608 151.064 51.1608C151.356 51.1718 151.645 51.1048 151.902 50.9668C152.159 50.8289 152.373 50.625 152.524 50.3765V51.0782H153.364V45.969H152.514L152.519 48.5741Z" fill="#808080"/>
<path d="M156.764 45.8634C156.474 45.8529 156.185 45.9191 155.929 46.0553C155.673 46.1914 155.457 46.3927 155.305 46.6385V45.9505H154.459V51.0781H155.305V48.473C155.305 47.2989 155.827 46.6018 156.69 46.6018C157.448 46.6018 157.799 47.01 157.799 47.886V51.0964H158.649V47.8584C158.654 46.6018 157.984 45.8634 156.764 45.8634Z" fill="#808080"/>
<path d="M160.557 45.9692H159.707V51.0922H160.557V45.9692Z" fill="#808080"/>
<path d="M160.603 44.084H159.716V45.2122H160.603V44.084Z" fill="#808080"/>
<path d="M165.347 49.5329C165.253 49.8178 165.065 50.063 164.814 50.2293C164.563 50.3956 164.262 50.4734 163.961 50.4502C162.954 50.4502 162.252 49.6613 162.252 48.5331C162.252 47.4048 162.954 46.5976 163.961 46.5976C164.261 46.5807 164.559 46.6611 164.809 46.8265C165.059 46.992 165.248 47.2335 165.347 47.5149L165.37 47.5699H166.225L166.197 47.4599C166.072 46.984 165.782 46.5671 165.378 46.282C164.975 45.997 164.483 45.8619 163.989 45.9005C163.301 45.929 162.65 46.2204 162.173 46.714C161.696 47.2076 161.43 47.8652 161.43 48.5491C161.43 49.2331 161.696 49.8906 162.173 50.3842C162.65 50.8778 163.301 51.1693 163.989 51.1978C164.492 51.2392 164.994 51.102 165.405 50.8105C165.816 50.5191 166.11 50.0924 166.234 49.6063L166.266 49.4962H165.375L165.347 49.5329Z" fill="#808080"/>
<path d="M171.14 49.9913V47.6981C171.14 46.8634 170.789 45.8636 169.126 45.8636C168.642 45.8407 168.166 45.9939 167.787 46.2945C167.409 46.5951 167.154 47.0224 167.07 47.4963V47.5972H167.92V47.533C167.975 47.2568 168.129 47.0096 168.353 46.8369C168.577 46.6641 168.856 46.5775 169.14 46.5928C169.87 46.5928 170.308 46.8863 170.308 47.3771C170.308 47.7256 170.022 47.8907 169.181 48.0237H169.149C168.225 48.1751 166.802 48.4044 166.802 49.6336C166.802 50.3995 167.375 51.17 168.65 51.17C168.974 51.1894 169.297 51.1238 169.588 50.9796C169.878 50.8355 170.125 50.618 170.304 50.349C170.299 50.565 170.308 50.781 170.332 50.9957V51.0737H171.255V50.9728C171.19 50.6493 171.152 50.321 171.14 49.9913ZM170.322 48.7209C170.322 49.9317 169.532 50.4729 168.747 50.4729C168.082 50.4729 167.638 50.1472 167.638 49.6565C167.638 49.1657 168.04 48.9273 168.9 48.7851C169.415 48.7453 169.908 48.5608 170.322 48.2531V48.7209Z" fill="#808080"/>
<path d="M173.256 49.8311V46.6894H174.207V45.9693H173.256V44.4375L172.415 44.8136V45.9693H171.671V46.6894H172.415V49.8402C172.399 50.0141 172.422 50.1894 172.484 50.3529C172.545 50.5165 172.643 50.6642 172.77 50.785C172.897 50.9058 173.05 50.9966 173.217 51.0506C173.384 51.1046 173.562 51.1204 173.736 51.0969H174.198V50.3768H173.736C173.343 50.3768 173.256 50.0787 173.256 49.8311Z" fill="#808080"/>
<path d="M175.898 44.084H175.011V45.2122H175.898V44.084Z" fill="#808080"/>
<path d="M175.852 45.9692H175.002V51.0922H175.852V45.9692Z" fill="#808080"/>
<path d="M179.233 45.8637C178.7 45.8371 178.172 45.9696 177.716 46.2441C177.259 46.5185 176.896 46.9224 176.673 47.4036C176.451 47.8847 176.378 48.4212 176.465 48.9437C176.552 49.4662 176.795 49.9509 177.162 50.3353C177.529 50.7196 178.003 50.9859 178.524 51.1C179.045 51.214 179.589 51.1706 180.084 50.9751C180.58 50.7797 181.006 50.4413 181.306 50.0036C181.606 49.5658 181.768 49.0488 181.769 48.5192C181.789 48.1768 181.739 47.834 181.62 47.5118C181.502 47.1897 181.318 46.8951 181.08 46.6462C180.843 46.3974 180.556 46.1995 180.238 46.0649C179.921 45.9303 179.579 45.8618 179.233 45.8637ZM179.233 50.4271C178.254 50.4271 177.542 49.6245 177.542 48.5192C177.542 47.4139 178.254 46.6021 179.233 46.6021C180.212 46.6021 180.919 47.4093 180.919 48.5192C180.919 49.6291 180.203 50.4501 179.233 50.4501V50.4271Z" fill="#808080"/>
<path d="M184.855 45.8636C184.564 45.8521 184.276 45.9179 184.019 46.0542C183.762 46.1904 183.547 46.3922 183.395 46.6387V45.9507H182.545V51.0783H183.391V48.4732C183.391 47.2991 183.913 46.602 184.776 46.602C185.534 46.602 185.885 47.0102 185.885 47.8862V51.0966H186.735V47.8586C186.744 46.602 186.056 45.8636 184.855 45.8636Z" fill="#808080"/>
<path d="M190.019 48.2437C189.872 48.1978 189.715 48.1566 189.558 48.1199L189.336 48.0603C188.772 47.9181 188.495 47.675 188.495 47.3218C188.495 46.8403 189.008 46.6201 189.479 46.6201C189.613 46.6062 189.749 46.6191 189.878 46.6579C190.006 46.6967 190.126 46.7607 190.23 46.8462C190.334 46.9316 190.419 47.0368 190.481 47.1555C190.544 47.2742 190.581 47.404 190.592 47.5374V47.6154H191.447V47.5191C191.409 47.0454 191.184 46.606 190.82 46.2973C190.456 45.9886 189.984 45.8358 189.507 45.8726C188.611 45.8726 187.659 46.3862 187.659 47.3402C187.659 48.0419 188.158 48.5418 189.105 48.7849C189.364 48.8445 189.567 48.8904 189.798 48.9638C190.338 49.1059 190.671 49.271 190.671 49.6563C190.671 50.3764 189.821 50.436 189.562 50.436C189.421 50.4554 189.278 50.447 189.141 50.4114C189.003 50.3758 188.874 50.3136 188.761 50.2284C188.648 50.1432 188.552 50.0367 188.481 49.9149C188.409 49.7931 188.362 49.6585 188.343 49.5187V49.4499H187.493V49.5416C187.64 50.7433 188.648 51.1698 189.539 51.1698C190.518 51.1698 191.516 50.647 191.516 49.638C191.512 48.7436 190.712 48.4226 190.019 48.2437Z" fill="#808080"/>
<path d="M191.992 52.2248H192.745L193.447 49.8032H192.514L191.992 52.2248Z" fill="#808080"/>
<path d="M197.272 44.084H196.422V51.0965H197.272V44.084Z" fill="#808080"/>
<path d="M199.258 44.084H198.371V45.2122H199.258V44.084Z" fill="#808080"/>
<path d="M199.212 45.9692H198.362V51.0922H199.212V45.9692Z" fill="#808080"/>
<path d="M205.425 45.8638C205.121 45.8531 204.82 45.9301 204.558 46.0856C204.297 46.241 204.086 46.4682 203.952 46.7398C203.827 46.4933 203.641 46.2831 203.41 46.1301C203.179 45.977 202.912 45.8863 202.635 45.8669C202.358 45.8474 202.081 45.8999 201.831 46.0192C201.58 46.1385 201.366 46.3204 201.208 46.5471V45.9601H200.358V51.0876H201.208V48.4826C201.208 48.0239 201.291 46.6022 202.376 46.6022C202.838 46.6022 203.333 46.7581 203.333 47.8955V51.106H204.178V48.4046C204.178 47.3039 204.64 46.6205 205.356 46.6205C205.993 46.6205 206.303 47.0425 206.303 47.9139V51.1243H207.153V47.8864C207.153 46.5976 206.525 45.8638 205.425 45.8638Z" fill="#808080"/>
<path d="M209.102 44.084H208.215V45.2122H209.102V44.084Z" fill="#808080"/>
<path d="M209.056 45.9692H208.206V51.0922H209.056V45.9692Z" fill="#808080"/>
<path d="M211.223 49.8311V46.6894H212.179V45.9693H211.223V44.4375L210.386 44.8136V45.9693H209.643V46.6894H210.386V49.8402C210.369 50.0143 210.392 50.19 210.453 50.354C210.515 50.518 210.613 50.666 210.74 50.787C210.867 50.908 211.02 50.9988 211.188 51.0524C211.355 51.1061 211.533 51.1213 211.708 51.0969H212.17V50.3768H211.708C211.637 50.3817 211.566 50.3703 211.5 50.3436C211.435 50.3168 211.376 50.2755 211.329 50.2227C211.283 50.17 211.249 50.1072 211.23 50.0393C211.211 49.9714 211.209 49.9001 211.223 49.8311Z" fill="#808080"/>
<path d="M213.685 44.084H212.835V51.0965H213.685V44.084Z" fill="#808080"/>
<path d="M216.928 45.8638C215.5 45.8638 214.465 46.9783 214.465 48.5101C214.465 50.0419 215.468 51.161 216.955 51.161C217.464 51.1941 217.969 51.0521 218.384 50.7589C218.8 50.4656 219.101 50.0391 219.237 49.5512L219.274 49.4411H218.42L218.397 49.4962C218.292 49.7891 218.093 50.0398 217.831 50.2097C217.569 50.3796 217.258 50.4592 216.946 50.4364C216.508 50.4364 216.088 50.264 215.778 49.9571C215.468 49.6502 215.293 49.2337 215.292 48.799H219.293V48.7119C219.298 48.634 219.298 48.5559 219.293 48.478C219.219 46.8361 218.36 45.8638 216.928 45.8638ZM215.306 48.0882C215.332 47.6794 215.514 47.2959 215.816 47.0162C216.117 46.7365 216.515 46.5818 216.928 46.5838C218.008 46.5838 218.346 47.3819 218.433 48.0882H215.306Z" fill="#808080"/>
<path d="M222.346 48.2437C222.198 48.1978 222.041 48.1566 221.884 48.1199L221.658 48.0603C221.09 47.9181 220.817 47.675 220.817 47.3218C220.817 46.8403 221.325 46.6201 221.801 46.6201C221.935 46.6063 222.07 46.6191 222.199 46.658C222.327 46.6969 222.447 46.761 222.55 46.8465C222.654 46.932 222.739 47.0372 222.8 47.1558C222.862 47.2745 222.899 47.4042 222.91 47.5374V47.6154H223.76V47.5191C223.722 47.0454 223.496 46.606 223.133 46.2973C222.769 45.9886 222.297 45.8358 221.82 45.8726C220.923 45.8726 219.972 46.3862 219.972 47.3402C219.972 48.0419 220.471 48.5418 221.418 48.7849C221.676 48.8445 221.88 48.8904 222.111 48.9638C222.651 49.1059 222.984 49.271 222.984 49.6563C222.984 50.3764 222.134 50.436 221.87 50.436C221.73 50.4554 221.587 50.447 221.45 50.4113C221.312 50.3756 221.184 50.3134 221.071 50.2281C220.958 50.1429 220.863 50.0363 220.792 49.9146C220.72 49.7928 220.674 49.6583 220.655 49.5187V49.4499H219.81V49.5416C219.958 50.7433 220.96 51.1698 221.852 51.1698C222.836 51.1698 223.834 50.647 223.834 49.638C223.838 48.7436 223.039 48.4226 222.346 48.2437Z" fill="#808080"/>
<path d="M226.855 48.244C226.707 48.1981 226.55 48.1569 226.393 48.1202L226.166 48.0606C225.603 47.9184 225.326 47.6753 225.326 47.3221C225.326 46.8406 225.838 46.6204 226.31 46.6204C226.444 46.6066 226.579 46.6194 226.708 46.6582C226.837 46.697 226.957 46.7611 227.061 46.8465C227.164 46.9319 227.25 47.0371 227.312 47.1558C227.374 47.2745 227.412 47.4043 227.423 47.5377V47.6157H228.277V47.5194C228.242 47.0466 228.019 46.6071 227.658 46.2969C227.297 45.9866 226.827 45.8309 226.351 45.8637C225.427 45.8637 224.503 46.3774 224.503 47.3313C224.503 48.033 225.002 48.5329 225.949 48.776C226.203 48.8356 226.411 48.8815 226.642 48.9549C227.178 49.0971 227.511 49.2622 227.511 49.6474C227.511 50.3675 226.661 50.4271 226.402 50.4271C226.261 50.4465 226.118 50.4381 225.981 50.4024C225.844 50.3667 225.715 50.3045 225.602 50.2193C225.489 50.134 225.395 50.0275 225.323 49.9057C225.252 49.784 225.206 49.6494 225.187 49.5098V49.441H224.342V49.5328C224.489 50.7344 225.497 51.1609 226.388 51.1609C227.372 51.1609 228.365 50.6381 228.365 49.6291C228.342 48.7439 227.543 48.4229 226.855 48.244Z" fill="#808080"/>
<path d="M234.999 46.7074C234.816 46.4404 234.568 46.2244 234.278 46.0798C233.988 45.9353 233.665 45.8671 233.34 45.8818C231.922 45.8818 230.966 46.9459 230.966 48.5282C230.966 50.1105 231.922 51.1791 233.34 51.1791C233.667 51.2033 233.994 51.1384 234.287 50.9912C234.579 50.8441 234.825 50.6204 234.999 50.3444V50.6838C234.999 51.7019 234.477 52.2661 233.525 52.2661C232.647 52.2661 232.172 51.9267 232.065 51.2341V51.1608H231.206V51.2571C231.336 52.3349 232.222 52.9999 233.516 52.9999C233.824 53.0179 234.132 52.9709 234.421 52.8621C234.709 52.7532 234.971 52.5849 235.189 52.3682C235.408 52.1516 235.577 51.8915 235.687 51.6051C235.796 51.3188 235.844 51.0126 235.826 50.7067V45.969H234.976L234.999 46.7074ZM233.419 50.4499C232.236 50.4499 231.816 49.4225 231.816 48.5419C231.816 47.6614 232.236 46.634 233.419 46.634C234.477 46.634 235.031 47.5926 235.031 48.5419C235.031 49.4088 234.606 50.4499 233.419 50.4499Z" fill="#808080"/>
<path d="M237.789 46.6618V45.9692H236.939V51.0968H237.789V48.5468C237.789 47.313 238.283 46.9874 238.713 46.8452C238.877 46.7737 239.055 46.7362 239.235 46.7352H239.322V45.9417H239.235C238.951 45.9197 238.666 45.9752 238.411 46.102C238.156 46.2289 237.941 46.4225 237.789 46.6618Z" fill="#808080"/>
<path d="M242.159 45.8635C241.626 45.8378 241.098 45.9711 240.642 46.2462C240.187 46.5212 239.824 46.9254 239.602 47.4067C239.38 47.888 239.308 48.4244 239.396 48.9466C239.483 49.4689 239.726 49.9531 240.094 50.337C240.461 50.7209 240.935 50.9867 241.456 51.1004C241.977 51.214 242.52 51.1702 243.016 50.9746C243.511 50.779 243.937 50.4406 244.237 50.0029C244.537 49.5653 244.698 49.0484 244.699 48.519C244.72 48.1761 244.67 47.8325 244.551 47.5098C244.433 47.187 244.249 46.8919 244.011 46.6429C243.772 46.3938 243.485 46.1961 243.166 46.062C242.848 45.9279 242.505 45.8603 242.159 45.8635ZM242.159 50.4269C241.179 50.4269 240.473 49.6243 240.473 48.519C240.473 47.4137 241.179 46.6019 242.159 46.6019C243.138 46.6019 243.849 47.4091 243.849 48.519C243.849 49.6289 243.138 50.4498 242.159 50.4498V50.4269Z" fill="#808080"/>
<path d="M250.113 49.2347C250.063 49.4503 250.003 49.6934 249.947 49.886V49.8355C249.896 49.6383 249.841 49.4319 249.795 49.2347L248.908 45.9692H247.928L247.032 49.2622C247 49.3815 246.972 49.5007 246.944 49.62C246.917 49.7392 246.903 49.7897 246.88 49.8768L246.727 49.2622L245.803 45.9692H244.921L246.418 51.0968H247.309L248.233 47.6891L248.279 47.4965C248.316 47.3635 248.349 47.2397 248.381 47.1112C248.432 47.3039 248.483 47.4919 248.538 47.6891L249.462 51.0326V51.0968H250.372L251.878 45.9692H251L250.113 49.2347Z" fill="#808080"/>
<path d="M253.721 49.8311V46.6894H254.673V45.9693H253.721V44.4375L252.88 44.8136V45.9693H252.137V46.6894H252.88V49.8402C252.864 50.0141 252.888 50.1894 252.949 50.3529C253.011 50.5165 253.109 50.6642 253.236 50.785C253.363 50.9058 253.515 50.9966 253.683 51.0506C253.85 51.1046 254.027 51.1204 254.202 51.0969H254.687V50.3768H254.225C253.809 50.3768 253.721 50.0787 253.721 49.8311Z" fill="#808080"/>
<path d="M257.638 45.8635C257.348 45.853 257.06 45.9192 256.803 46.0554C256.547 46.1915 256.331 46.3928 256.179 46.6386V44.084H255.333V51.0965H256.179V48.4915C256.179 47.3174 256.701 46.6202 257.564 46.6202C258.322 46.6202 258.673 47.0284 258.673 47.9044V51.1149H259.523V47.8769C259.528 46.6019 258.839 45.8635 257.638 45.8635Z" fill="#808080"/>
</g>
<defs>
<clipPath id="clip0_949_38">
<rect width="260.031" height="53" fill="white"/>
</clipPath>
</defs>
</svg>
